<svg width="24" height="24" viewBox="0 0 24 24" fill="none" xmlns="http://www.w3.org/2000/svg">
<path d="M22.5371 12.2498C22.5371 11.4454 22.466 10.6754 22.3308 9.9375H12V14.1817H17.9492C17.7063 15.591 16.9294 16.7896 15.74 17.5917V20.3417H19.2829C21.3523 18.4258 22.5371 15.5956 22.5371 12.2498Z" fill="#4285F4"/>
<path d="M11.9999 22.9998C14.9721 22.9998 17.4678 22.0235 19.2828 20.3391L15.7399 17.5891C14.7544 18.2537 13.4849 18.6433 11.9999 18.6433C9.13069 18.6433 6.69694 16.7091 5.82382 14.1035H2.1709V16.9383C3.98132 20.5339 7.70069 22.9998 11.9999 22.9998Z" fill="#34A853"/>
<path d="M5.82396 14.1061C5.60167 13.4415 5.48021 12.7334 5.48021 12.0001C5.48021 11.2667 5.60167 10.5609 5.82396 9.89402V7.06152H2.17104C1.42396 8.54652 1 10.224 1 12.0001C1 13.7761 1.42396 15.4536 2.17104 16.9386L5.82396 14.1061Z" fill="#FBBC05"/>
<path d="M11.9999 5.35417C13.6201 5.35417 15.073 5.91333 16.2211 7.00417V7.00646L19.3607 3.86688C17.454 2.09083 14.9676 1 11.9999 1C7.70069 1 3.98132 3.46583 2.1709 7.06146L5.82382 9.89625C6.69694 7.28833 9.13069 5.35417 11.9999 5.35417Z" fill="#EA4335"/>
</svg>
