<svg width="32" height="32" viewBox="0 0 32 32" fill="none" xmlns="http://www.w3.org/2000/svg">
<path d="M11.0748 28C22.0238 28 28.0408 19.1529 28.0408 11.4598C28.0408 11.1713 28.0408 10.979 28.0408 10.6905C29.2245 9.82501 30.2109 8.86337 31 7.7094C29.915 8.19022 28.7313 8.47871 27.5476 8.67104C28.8299 7.90173 29.7177 6.84393 30.2109 5.40147C29.0272 6.07461 27.7449 6.55543 26.4626 6.84393C24.1939 4.53599 20.4456 4.34366 17.9796 6.55543C16.4014 7.99789 15.8095 10.1135 16.2041 12.1329C11.3707 11.9406 6.93197 9.72885 3.87415 6.07461C2.29592 8.76721 3.08503 12.1329 5.7483 13.8639C4.7619 13.8639 3.87415 13.5754 2.98639 13.0946V13.1907C2.98639 15.9795 4.95918 18.3836 7.81973 18.8644C6.93197 19.0568 6.04422 19.1529 5.15646 18.9606C5.94558 21.3647 8.21429 22.9995 10.7789 22.9995C8.70748 24.6343 6.04422 25.4997 3.38095 25.4997C2.88776 25.4997 2.39456 25.4997 2 25.4036C4.66327 27.1345 7.81973 28 11.0748 28Z" fill="white"/>
</svg>
