<svg width="34" height="20" viewBox="0 0 34 20" fill="none" xmlns="http://www.w3.org/2000/svg">
<rect width="34" height="20" rx="2" fill="#016FD0"/>
<path d="M4.38814 5.53063L2.82417 9.16697H3.8424L4.13098 8.43879H5.80861L6.09567 9.16697H7.13635L5.5738 5.53063H4.38814ZM4.96679 6.37689L5.47814 7.64935H4.45395L4.96679 6.37689ZM7.24399 9.16635V5.53001L8.69094 5.53538L9.53254 7.87987L10.354 5.53001H11.7894V9.16635H10.8803V6.48695L9.91666 9.16635H9.1194L8.15307 6.48695V9.16635H7.24399ZM12.4114 9.16635V5.53001H15.3779V6.3434H13.3301V6.96539H15.33V7.73096H13.3301V8.3769H15.3779V9.16635H12.4114ZM15.9042 5.53063V9.16697H16.8133V7.8751H17.1961L18.286 9.16697H19.397L18.2008 7.82725C18.6917 7.78582 19.1981 7.36449 19.1981 6.71034C19.1981 5.94514 18.5975 5.53063 17.9272 5.53063H15.9042ZM16.8133 6.34402H17.8524C18.1018 6.34402 18.2831 6.53901 18.2831 6.72678C18.2831 6.96834 18.0481 7.10956 17.8659 7.10956H16.8133V6.34402ZM20.4975 9.16635H19.5693V5.53001H20.4975V9.16635ZM22.6984 9.16635H22.4981C21.5286 9.16635 20.94 8.40257 20.94 7.36313C20.94 6.29797 21.522 5.53001 22.7462 5.53001H23.751V6.39125H22.7095C22.2126 6.39125 21.8611 6.77909 21.8611 7.37209C21.8611 8.07632 22.263 8.37209 22.8419 8.37209H23.0812L22.6984 9.16635ZM24.6766 5.53063L23.1126 9.16697H24.1308L24.4194 8.43879H26.097L26.3841 9.16697H27.4248L25.8623 5.53063H24.6766ZM25.2552 6.37689L25.7666 7.64935H24.7423L25.2552 6.37689ZM27.5309 9.16635V5.53001H28.6867L30.1625 7.81469V5.53001H31.0716V9.16635H29.9531L28.44 6.82188V9.16635H27.5309ZM6.61185 14.3536V10.7172H9.57831V11.5306H7.53048V12.1527H9.53046V12.9182H7.53048V13.5641H9.57831V14.3536H6.61185ZM21.1476 14.3536V10.7172H24.1141V11.5306H22.0662V12.1527H24.0567V12.9182H22.0662V13.5641H24.114V14.3536H21.1476ZM9.69345 14.3536L11.1378 12.5579L9.65906 10.7172H10.8044L11.6851 11.8551L12.5688 10.7172H13.6693L12.2099 12.5354L13.6569 14.3536H12.5118L11.6567 13.2337L10.8224 14.3536H9.69345ZM13.7649 10.7179V14.3542H14.6979V13.2059H15.6548C16.4645 13.2059 17.0783 12.7763 17.0783 11.941C17.0783 11.2489 16.5969 10.7179 15.773 10.7179H13.7649ZM14.6979 11.5402H15.7057C15.9673 11.5402 16.1542 11.7006 16.1542 11.9589C16.1542 12.2016 15.9682 12.3775 15.7027 12.3775H14.6979V11.5402ZM17.473 10.7172V14.3536H18.3821V13.0617H18.7649L19.8549 14.3536H20.9658L19.7697 13.0139C20.2605 12.9725 20.7669 12.5511 20.7669 11.897C20.7669 11.1318 20.1663 10.7172 19.496 10.7172H17.473ZM18.3821 11.5306H19.4213C19.6706 11.5306 19.8519 11.7256 19.8519 11.9134C19.8519 12.155 19.6169 12.2962 19.4347 12.2962H18.3821V11.5306ZM24.5351 14.3536V13.5641H26.3545C26.6237 13.5641 26.7402 13.4186 26.7402 13.2591C26.7402 13.1062 26.6241 12.9517 26.3545 12.9517H25.5323C24.8177 12.9517 24.4197 12.5163 24.4197 11.8626C24.4197 11.2795 24.7842 10.7172 25.8461 10.7172H27.6164L27.2337 11.5354H25.7026C25.4099 11.5354 25.3198 11.689 25.3198 11.8357C25.3198 11.9864 25.4311 12.1527 25.6547 12.1527H26.516C27.3126 12.1527 27.6583 12.6045 27.6583 13.1963C27.6583 13.8325 27.2731 14.3536 26.4726 14.3536H24.5351ZM27.8717 14.3536V13.5641H29.691C29.9602 13.5641 30.0768 13.4186 30.0768 13.2591C30.0768 13.1062 29.9606 12.9517 29.691 12.9517H28.8689C28.1542 12.9517 27.7563 12.5163 27.7563 11.8626C27.7563 11.2795 28.1207 10.7172 29.1827 10.7172H30.953L30.5702 11.5354H29.0391C28.7465 11.5354 28.6563 11.689 28.6563 11.8357C28.6563 11.9864 28.7677 12.1527 28.9913 12.1527H29.8525C30.6492 12.1527 30.9949 12.6045 30.9949 13.1963C30.9949 13.8325 30.6096 14.3536 29.8092 14.3536H27.8717Z" fill="white"/>
</svg>
