<svg width="118" height="30" viewBox="0 0 118 30" fill="none" xmlns="http://www.w3.org/2000/svg">
<rect x="0.5" y="5.5" width="33" height="20" rx="1.5" fill="white"/>
<path fill-rule="evenodd" clip-rule="evenodd" d="M16.4122 14.0576C16.3985 15.1719 17.3744 15.7938 18.1094 16.1636C18.8647 16.543 19.1184 16.7862 19.1155 17.1255C19.1097 17.6447 18.513 17.8738 17.9545 17.8827C16.9801 17.8983 16.4136 17.6112 15.9632 17.394L15.6123 19.0893C16.0641 19.3044 16.9008 19.4918 17.7686 19.5C19.8052 19.5 21.1377 18.4622 21.1449 16.8532C21.1529 14.8112 18.4085 14.6981 18.4272 13.7853C18.4337 13.5086 18.6896 13.2132 19.2503 13.1381C19.5277 13.1002 20.2938 13.0711 21.1622 13.484L21.5031 11.8437C21.0361 11.6682 20.4357 11.5 19.6884 11.5C17.7714 11.5 16.4231 12.5519 16.4122 14.0576ZM24.7786 11.6413C24.4067 11.6413 24.0932 11.8653 23.9534 12.209L21.044 19.3795H23.0792L23.4842 18.2242H25.9713L26.2062 19.3795H28L26.4347 11.6413H24.7786ZM25.0632 13.7317L25.6506 16.6374H24.042L25.0632 13.7317ZM13.9446 11.6413L12.3404 19.3795H14.2797L15.8832 11.6413H13.9446ZM11.0756 11.6413L9.05698 16.9082L8.24044 12.4299C8.14462 11.93 7.76626 11.6413 7.34608 11.6413H4.04614L4 11.866C4.67746 12.0178 5.44714 12.2625 5.9134 12.5244C6.19876 12.6843 6.28024 12.8241 6.3739 13.2043L7.92046 19.3795H9.97012L13.1123 11.6413H11.0756Z" fill="#1A1F71"/>
<rect x="0.5" y="5.5" width="33" height="20" rx="1.5" stroke="#E1E1E1"/>
<rect x="42.5" y="5.5" width="33" height="20" rx="1.5" fill="white"/>
<circle cx="54.5" cy="15.5" r="6.5" fill="#EB001B"/>
<circle cx="63.5" cy="15.5" r="6.5" fill="#44A1E1"/>
<path d="M59 20.1904C60.2327 19.0075 61 17.3434 61 15.5C61 13.6567 60.2327 11.9925 59 10.8096C57.7673 11.9925 57 13.6567 57 15.5C57 17.3434 57.7673 19.0075 59 20.1904Z" fill="#7278CB"/>
<rect x="42.5" y="5.5" width="33" height="20" rx="1.5" stroke="#E1E1E1"/>
<rect x="84.5" y="5.5" width="33" height="20" rx="1.5" fill="white"/>
<circle cx="96.5" cy="15.5" r="6.5" fill="#EB001B"/>
<circle cx="105.5" cy="15.5" r="6.5" fill="#F79E1B"/>
<path d="M101 20.1904C102.233 19.0075 103 17.3434 103 15.5C103 13.6567 102.233 11.9925 101 10.8096C99.7673 11.9925 99 13.6567 99 15.5C99 17.3434 99.7673 19.0075 101 20.1904Z" fill="#FF5F00"/>
<rect x="84.5" y="5.5" width="33" height="20" rx="1.5" stroke="#E1E1E1"/>
</svg>
