<svg width="40" height="22" viewBox="0 0 40 22" fill="none" xmlns="http://www.w3.org/2000/svg">
<rect width="39.6" height="22" rx="4" fill="#FFB3C7"/>
<path d="M35.8986 12.8885C35.7748 12.889 35.6523 12.9138 35.5381 12.9617C35.4239 13.0096 35.3203 13.0795 35.2332 13.1674C35.146 13.2554 35.0771 13.3596 35.0303 13.4743C34.9835 13.5889 34.9598 13.7116 34.9605 13.8354C34.9598 13.9592 34.9835 14.0819 35.0303 14.1965C35.0771 14.3112 35.146 14.4154 35.2332 14.5034C35.3203 14.5913 35.4239 14.6612 35.5381 14.7091C35.6523 14.7569 35.7748 14.7818 35.8986 14.7823C36.416 14.7823 36.8367 14.3581 36.8367 13.8354C36.8374 13.7116 36.8136 13.5889 36.7668 13.4743C36.7201 13.3596 36.6511 13.2554 36.564 13.1674C36.4769 13.0795 36.3732 13.0096 36.2591 12.9617C36.1449 12.9138 36.0224 12.889 35.8986 12.8885ZM32.8115 12.1572C32.8115 11.4409 32.2052 10.861 31.4572 10.861C30.7092 10.861 30.1029 11.4418 30.1029 12.1572C30.1029 12.8727 30.7101 13.4526 31.4581 13.4526C32.2061 13.4526 32.8115 12.8727 32.8115 12.1572ZM32.8168 9.6378H34.3111V14.6758H32.8168V14.3537C32.3812 14.6544 31.8643 14.8153 31.3349 14.8148C29.8803 14.8148 28.7011 13.6251 28.7011 12.1572C28.7011 10.6894 29.8803 9.49964 31.3349 9.49964C31.8849 9.49964 32.3944 9.66948 32.8168 9.96076V9.6378ZM20.8559 10.2943V9.63868H19.3255V14.6758H20.8594V12.3236C20.8594 11.5298 21.7112 11.1039 22.3026 11.1039H22.3202V9.63868C21.713 9.63868 21.1559 9.90092 20.8559 10.2943ZM17.0437 12.1572C17.0437 11.4409 16.4374 10.861 15.6894 10.861C14.9414 10.861 14.3351 11.4418 14.3351 12.1572C14.3351 12.8727 14.9423 13.4526 15.6903 13.4526C16.4383 13.4526 17.0437 12.8727 17.0437 12.1572ZM17.049 9.6378H18.5441V14.6758H17.049V14.3537C16.6266 14.6441 16.1171 14.8148 15.5671 14.8148C14.1124 14.8148 12.9332 13.6251 12.9332 12.1572C12.9332 10.6894 14.1124 9.49964 15.5671 9.49964C16.1171 9.49964 16.6266 9.66948 17.049 9.96076V9.6378ZM26.0452 9.50316C25.4486 9.50316 24.8836 9.68972 24.5052 10.2054V9.63868H23.0171V14.6758H24.5237V12.0288C24.5237 11.2632 25.0323 10.8874 25.6457 10.8874C26.3022 10.8874 26.6806 11.2834 26.6806 12.0182V14.6758H28.1731V11.4726C28.1731 10.3004 27.2491 9.50316 26.0452 9.50316ZM10.7561 14.6758H12.3207V7.3938H10.7561V14.6758ZM3.8833 14.6776H5.54034V7.39204H3.88418L3.8833 14.6776ZM9.67898 7.39204C9.67898 8.969 9.07002 10.4368 7.9841 11.5272L10.2739 14.6776H8.22786L5.7401 11.2544L6.3825 10.7686C6.90546 10.3753 7.32918 9.86509 7.6198 9.27881C7.91042 8.69252 8.05989 8.04639 8.05626 7.39204H9.67722H9.67898Z" fill="#0A0B09"/>
</svg>
