<svg width="87" height="22" viewBox="0 0 87 22" fill="none" xmlns="http://www.w3.org/2000/svg">
<g clip-path="url(#clip0_4_1041)">
<path d="M32.5665 4.75626H27.7468C27.4184 4.75626 27.1365 4.99728 27.0851 5.32145L25.1358 17.6804C25.1323 17.7008 25.1309 17.722 25.1309 17.7424C25.1309 17.963 25.312 18.1441 25.5326 18.1441H27.8342C28.1626 18.1441 28.4452 17.9024 28.496 17.5782L29.0217 14.2448C29.0724 13.9206 29.3543 13.6789 29.6827 13.6789H31.2085C34.3833 13.6789 36.2156 12.1426 36.6941 9.09812C36.9098 7.76617 36.7033 6.71964 36.0796 5.98672C35.3946 5.18192 34.1796 4.75626 32.5665 4.75626ZM33.1225 9.27008C32.859 10.9995 31.5376 10.9995 30.2599 10.9995H29.5326L30.0429 7.7697C30.0739 7.57519 30.243 7.43072 30.4396 7.43072H30.773C31.6433 7.43072 32.4643 7.43072 32.8886 7.92685C33.1416 8.22284 33.2191 8.6626 33.1225 9.27008ZM46.9734 9.2144H44.6654C44.4688 9.2144 44.2996 9.35887 44.2686 9.55338L44.1664 10.1989L44.005 9.96494C43.5054 9.23977 42.3912 8.99734 41.2791 8.99734C38.7287 8.99734 36.5504 10.929 36.1261 13.6387C35.9055 14.9904 36.2191 16.2829 36.9859 17.1842C37.6892 18.013 38.6956 18.3583 39.8929 18.3583C41.9479 18.3583 43.0875 17.0369 43.0875 17.0369L42.9846 17.6783C42.9811 17.6994 42.9797 17.7205 42.9797 17.7417C42.9797 17.9616 43.1608 18.1434 43.3806 18.1434H45.4596C45.788 18.1434 46.0706 17.9017 46.1214 17.5775L47.3687 9.67812C47.3723 9.65698 47.3737 9.63583 47.3737 9.61469C47.3737 9.39481 47.1933 9.2144 46.9734 9.2144ZM43.7563 13.7064C43.5336 15.0249 42.487 15.9101 41.1523 15.9101C40.4821 15.9101 39.9465 15.6951 39.6026 15.2878C39.2615 14.8833 39.1318 14.3075 39.2403 13.6662C39.4482 12.3589 40.5124 11.4449 41.8267 11.4449C42.4821 11.4449 43.0149 11.6626 43.3658 12.0735C43.7175 12.4886 43.857 13.0679 43.7563 13.7064ZM59.2654 9.2144H56.9461C56.7241 9.2144 56.5162 9.32505 56.3914 9.50828L53.1927 14.2201L51.8367 9.69221C51.7515 9.40961 51.4893 9.2144 51.194 9.2144H48.9149C48.9142 9.2144 48.9142 9.2144 48.9135 9.2144C48.6936 9.2144 48.5118 9.39552 48.5118 9.6161C48.5118 9.6605 48.5196 9.70419 48.5337 9.74577L51.0883 17.2427L48.6866 20.6332C48.6387 20.7009 48.6126 20.7826 48.6126 20.8658C48.6126 21.0863 48.7937 21.2675 49.0143 21.2675H51.3307C51.5499 21.2675 51.7564 21.1603 51.8811 20.9799L59.5952 9.84514C59.6417 9.77819 59.667 9.69785 59.667 9.6161C59.667 9.39552 59.4859 9.2144 59.2654 9.2144Z" fill="#253B80"/>
<path d="M66.9439 4.75624H62.1236C61.7959 4.75624 61.5133 4.99726 61.4625 5.32144L59.5132 17.6804C59.5097 17.7008 59.5083 17.7219 59.5083 17.7431C59.5083 17.963 59.6894 18.1441 59.9093 18.1441H62.3829C62.6126 18.1441 62.81 17.9749 62.8452 17.748L63.3984 14.2448C63.4492 13.9206 63.7311 13.6789 64.0595 13.6789H65.5845C68.76 13.6789 70.5916 12.1426 71.0709 9.09811C71.2872 7.76616 71.0793 6.71963 70.4556 5.98671C69.7713 5.1819 68.5571 4.75624 66.9439 4.75624ZM67.5 9.27006C67.2371 10.9995 65.9157 10.9995 64.6374 10.9995H63.9108L64.4217 7.76969C64.452 7.57518 64.6211 7.43071 64.8178 7.43071H65.1511C66.0207 7.43071 66.8425 7.43071 67.2667 7.92684C67.5197 8.22283 67.5965 8.66258 67.5 9.27006ZM81.3501 9.21439H79.0435C78.8469 9.21368 78.6771 9.35886 78.6475 9.55337L78.5453 10.1989L78.3832 9.96493C77.8835 9.23976 76.7701 8.99733 75.658 8.99733C73.1076 8.99733 70.9299 10.929 70.5057 13.6387C70.2858 14.9904 70.598 16.2829 71.3647 17.1842C72.0695 18.013 73.0744 18.3583 74.2718 18.3583C76.3268 18.3583 77.4663 17.0369 77.4663 17.0369L77.3634 17.6782C77.3599 17.6994 77.3585 17.7205 77.3585 17.7417C77.3585 17.9622 77.5396 18.1434 77.7602 18.1434H77.7609H79.8392C80.1676 18.1434 80.4495 17.9016 80.5002 17.5775L81.7483 9.6781C81.7511 9.65767 81.7532 9.63723 81.7532 9.61679C81.7532 9.39621 81.5714 9.21439 81.3508 9.21439C81.3501 9.21439 81.3501 9.21439 81.3501 9.21439ZM78.133 13.7064C77.9117 15.0249 76.8638 15.9101 75.529 15.9101C74.8602 15.9101 74.3232 15.6951 73.9793 15.2878C73.6382 14.8833 73.51 14.3075 73.6171 13.6662C73.8264 12.3589 74.8891 11.4449 76.2034 11.4449C76.8588 11.4449 77.3916 11.6626 77.7426 12.0735C78.0957 12.4886 78.2352 13.0679 78.133 13.7064ZM84.0711 5.09522L82.0929 17.6804C82.0894 17.7008 82.088 17.7219 82.088 17.7431C82.088 17.963 82.2691 18.1441 82.489 18.1441H84.4777C84.8082 18.1441 85.0887 17.9045 85.1395 17.5782L87.0902 5.21996C87.0937 5.19952 87.0951 5.17838 87.0951 5.15724C87.0951 4.93736 86.914 4.75624 86.6941 4.75554H84.4672C84.2705 4.75624 84.1014 4.90071 84.0711 5.09522Z" fill="#179BD7"/>
<path d="M5.12043 20.5458L5.48901 18.2047L4.66799 18.1857H0.747559L3.47206 0.910522C3.48897 0.801993 3.58341 0.720949 3.69335 0.721654H10.3037C12.4983 0.721654 14.0128 1.17832 14.8035 2.07968C15.1742 2.50252 15.4102 2.94438 15.5244 3.43065C15.6442 3.94088 15.6463 4.55047 15.5293 5.29397L15.5209 5.34823V5.82463L15.8916 6.03464C16.1749 6.1777 16.4293 6.37221 16.6421 6.60689C16.9593 6.96841 17.1643 7.4279 17.251 7.97266C17.3405 8.53292 17.3109 9.1996 17.1643 9.95437C16.9952 10.8226 16.7218 11.5788 16.3525 12.1975C16.0269 12.7522 15.5885 13.2321 15.0663 13.607C14.5758 13.9551 13.993 14.2194 13.3341 14.3886C12.6956 14.5549 11.9676 14.6387 11.1692 14.6387H10.6547C10.2868 14.6387 9.92954 14.7712 9.64905 15.0087C9.36927 15.249 9.18322 15.5803 9.12473 15.9446L9.08597 16.1553L8.43479 20.2815L8.4052 20.4331C8.39744 20.481 8.38405 20.5049 8.36432 20.5212C8.34529 20.5367 8.32133 20.5458 8.29667 20.5458H5.12043Z" fill="#253B80"/>
<path d="M16.2427 5.4032C16.2229 5.52935 16.2004 5.65831 16.175 5.7908C15.3032 10.2666 12.3208 11.8128 8.51172 11.8128H6.57229C6.10647 11.8128 5.71393 12.151 5.64134 12.6105L4.64837 18.908L4.36718 20.6931C4.36295 20.7185 4.36084 20.7445 4.36084 20.7706C4.36084 21.0427 4.58495 21.2668 4.85697 21.2668H8.29678C8.70411 21.2668 9.05014 20.9708 9.11427 20.5691L9.1481 20.3943L9.79575 16.2843L9.83733 16.0588C9.90075 15.6557 10.2475 15.3597 10.6548 15.3597H11.1693C14.502 15.3597 17.1109 14.0066 17.8734 10.0911C18.1919 8.4554 18.027 7.08963 17.1842 6.12907C16.9171 5.83168 16.5978 5.58572 16.2427 5.4032Z" fill="#179BD7"/>
<path d="M15.331 5.03955C15.0526 4.95921 14.7693 4.89649 14.4832 4.85139C13.9173 4.76471 13.3458 4.72242 12.7735 4.72665H7.5923C7.18638 4.72665 6.83754 5.02476 6.77552 5.42575L5.67331 12.4068L5.6416 12.6105C5.71207 12.1531 6.11025 11.8128 6.57256 11.8128H8.51198C12.3211 11.8128 15.3035 10.2659 16.1753 5.7908C16.2013 5.65831 16.2232 5.52934 16.2429 5.4032C16.0132 5.28269 15.7729 5.18121 15.5262 5.10087C15.4614 5.07972 15.3965 5.05929 15.331 5.03955Z" fill="#222D65"/>
<path d="M6.77531 5.42575C6.83733 5.02475 7.18617 4.72595 7.5921 4.72736H12.7733C13.3871 4.72736 13.9601 4.76752 14.483 4.85209C14.8368 4.90777 15.1856 4.99092 15.5267 5.10086C15.7839 5.18614 16.0228 5.28691 16.2434 5.40319C16.5028 3.74918 16.2413 2.62302 15.347 1.60327C14.3611 0.480629 12.5816 0 10.3046 0H3.69421C3.22909 0 2.83233 0.338272 2.76044 0.798463L0.00704734 18.2512C0.0021142 18.2808 0 18.3104 0 18.34C0 18.6515 0.255818 18.9073 0.567311 18.908H4.64842L5.67311 12.4068L6.77531 5.42575Z" fill="#253B80"/>
</g>
<defs>
<clipPath id="clip0_4_1041">
<rect width="87" height="22" fill="white"/>
</clipPath>
</defs>
</svg>
