<svg width="34" height="20" viewBox="0 0 34 20" fill="none" xmlns="http://www.w3.org/2000/svg">
<rect width="34" height="20" rx="2" fill="white"/>
<path fill-rule="evenodd" clip-rule="evenodd" d="M16.9122 8.55756C16.8985 9.67194 17.8744 10.2938 18.6094 10.6636C19.3647 11.043 19.6184 11.2862 19.6155 11.6255C19.6097 12.1447 19.013 12.3738 18.4545 12.3827C17.4801 12.3983 16.9136 12.1112 16.4632 11.894L16.1123 13.5893C16.5641 13.8044 17.4008 13.9918 18.2686 14C20.3052 14 21.6377 12.9622 21.6449 11.3532C21.6529 9.31117 18.9085 9.19808 18.9272 8.2853C18.9337 8.00858 19.1896 7.71322 19.7503 7.63809C20.0277 7.60019 20.7938 7.57114 21.6622 7.98399L22.0031 6.34373C21.5361 6.16815 20.9357 6 20.1884 6C18.2714 6 16.9231 7.05189 16.9122 8.55756ZM25.2786 6.14133C24.9067 6.14133 24.5932 6.36529 24.4534 6.70896L21.544 13.8795H23.5792L23.9842 12.7242H26.4713L26.7062 13.8795H28.5L26.9347 6.14133H25.2786ZM25.5632 8.23173L26.1506 11.1374H24.542L25.5632 8.23173ZM14.4446 6.14133L12.8404 13.8795H14.7797L16.3832 6.14133H14.4446ZM11.5756 6.14133L9.55698 11.4082L8.74044 6.92988C8.64462 6.43001 8.26626 6.14133 7.84608 6.14133H4.54614L4.5 6.36603C5.17746 6.51777 5.94714 6.76253 6.4134 7.02439C6.69876 7.1843 6.78024 7.32415 6.8739 7.7043L8.42046 13.8795H10.4701L13.6123 6.14133H11.5756Z" fill="#1A1F71"/>
</svg>
