<svg width="32" height="32" viewBox="0 0 32 32" fill="none" xmlns="http://www.w3.org/2000/svg">
<mask id="mask0_4_819" style="mask-type:alpha" maskUnits="userSpaceOnUse" x="0" y="0" width="32" height="32">
<rect width="32" height="32" fill="white"/>
</mask>
<g mask="url(#mask0_4_819)">
<path fill-rule="evenodd" clip-rule="evenodd" d="M27.4599 6.28329C28.7216 6.62329 29.7166 7.62329 30.0533 8.89329C30.6666 11.1966 30.6666 16 30.6666 16C30.6666 16 30.6666 20.8033 30.0533 23.1066C29.7166 24.3766 28.7216 25.3766 27.4599 25.7166C25.1733 26.3333 15.9999 26.3333 15.9999 26.3333C15.9999 26.3333 6.82659 26.3333 4.53992 25.7166C3.27825 25.3766 2.28325 24.3766 1.94659 23.1066C1.33325 20.8033 1.33325 16 1.33325 16C1.33325 16 1.33325 11.1966 1.94659 8.89329C2.28325 7.62329 3.27825 6.62329 4.53992 6.28329C6.82659 5.66663 15.9999 5.66663 15.9999 5.66663C15.9999 5.66663 25.1733 5.66663 27.4599 6.28329ZM20.6667 16L13 20.3616V11.6383L20.6667 16Z" fill="white"/>
</g>
</svg>
